<?xml version="1.0" encoding="UTF-8"?>
<svg width="40px" height="41px" viewBox="0 0 40 41" version="1.1" xmlns="http://www.w3.org/2000/svg" xmlns:xlink="http://www.w3.org/1999/xlink">
    <title>Icon</title>
    <defs>
        <rect id="path-1" x="0" y="0" width="40" height="40" rx="8"></rect>
    </defs>
    <g id="Symbols" stroke="none" stroke-width="1" fill="none" fill-rule="evenodd">
        <g id="Project-Header" transform="translate(-30.000000, -39.000000)">
            <g transform="translate(30.000000, 35.000000)" id="Title">
                <g id="Icon" transform="translate(0.000000, 4.546875)">
                    <mask id="mask-2" fill="white">
                        <use xlink:href="#path-1"></use>
                    </mask>
                    <use id="Mask" fill="#FFC200" xlink:href="#path-1"></use>
                    <g id="Shapes" mask="url(#mask-2)" fill-rule="nonzero">
                        <g transform="translate(-3.000000, -18.753068)">
                            <path d="M39.1105561,5.31914083 L66.3677783,5.28625405 C68.5769157,5.28358865 70.3699361,7.07228761 70.3726015,9.281425 C70.3726054,9.2846407 70.3726054,9.2878564 70.3726015,9.29107209 L70.3148273,57.2269786 C70.3121693,59.4323495 68.5250272,61.2194938 66.3196563,61.2221547 L39.0624341,61.2550415 C36.8532967,61.2577069 35.0602763,59.4690079 35.0576109,57.2598705 C35.057607,57.2566548 35.057607,57.2534391 35.0576109,57.2502234 L35.1153851,9.31431697 C35.1180431,7.10894605 36.9051852,5.32180169 39.1105561,5.31914083 Z" id="Rectangle-2-Copy-2" stroke="none" fill="#753AD7" transform="translate(52.715106, 33.270648) rotate(-33.000000) translate(-52.715106, -33.270648) "></path>
                            <ellipse id="Oval-4-Copy" stroke="#FF0000" stroke-width="6" fill="none" cx="15.9264485" cy="45.6359447" rx="12.3284769" ry="12.3689978"></ellipse>
                        </g>
                    </g>
                </g>
            </g>
        </g>
    </g>
</svg>