<svg width="10" height="6" viewBox="0 0 10 6" fill="none" xmlns="http://www.w3.org/2000/svg">
<path fill-rule="evenodd" clip-rule="evenodd" d="M9.76246 0.684322L9.28117 0.22601C9.11438 0.075351 8.91958 0 8.69722 0C8.47027 0 8.27779 0.075351 8.11946 0.22601L5.00002 3.19558L1.88061 0.226096C1.7223 0.0754366 1.52977 8.56018e-05 1.30291 8.56018e-05C1.08044 8.56018e-05 0.885688 0.0754366 0.718878 0.226096L0.243897 0.684408C0.0812692 0.839111 0 1.0245 0 1.24041C0 1.46035 0.0813591 1.64364 0.243875 1.79025L4.4223 5.76785C4.57641 5.92257 4.76887 6 5 6C5.22679 6 5.42152 5.92259 5.58399 5.76785L9.76244 1.79025C9.92078 1.63951 10 1.45624 10 1.24041C10 1.02853 9.9208 0.843242 9.76246 0.684322Z" fill="black"/>
</svg>
